#!OML:ASF H:\Punching\Project 1\Capture day 1\Session 1\female.ASF
:FULLY-SPECIFIED
:DEGREES
1254
root -1.85367 15.8406 11.9673 -169.292 370.318 -183.013
lowerback -5.45536 0.0169795 -2.23988
upperback -5.46468 0.506572 -2.15765
thorax -2.56885 0.476679 -0.959797
lowerneck -11.6939 5.06713 15.3565
upperneck 36.2149 11.6187 -8.98346
head 16.3689 7.32906 -4.14889
rclavicle 9.0447e-015 -2.82274e-014
rhumerus -39.9192 -10.4949 -73.0363
rradius 25.8902
rwrist 14.0324
rhand -10.1962 -4.89521
rfingers 7.12502
rthumb 15.7947 -34.2708
lclavicle 9.0447e-015 -2.82274e-014
lhumerus -43.687 8.84915 69.4822
lradius 36.1755
lwrist -18.9286
lhand -4.84878 13.5887
lfingers 7.12502
lthumb 20.9387 42.4786
rfemur -28.9028 -5.35968 16.9633
rtibia 64.426
rfoot -13.0262 -14.4322
rtoes -7.41907
lfemur -14.2296 -2.07229 -28.6008
ltibia 15.0372
lfoot -14.0498 14.7903
ltoes 6.97506
1255
root -1.8527 15.8228 11.8611 -169.3 370.271 -183.06
lowerback -5.45243 -0.0971762 -2.33585
upperback -5.41756 0.351971 -2.07002
thorax -2.52254 0.400286 -0.819878
lowerneck -11.5993 5.11006 15.4031
upperneck 36.2371 11.7396 -9.0491
head 16.3896 7.38512 -4.16535
rclavicle 2.17918e-014 7.95139e-015
rhumerus -40.2959 -10.6758 -72.4038
rradius 25.9657
rwrist 13.5437
rhand -10.5629 -4.75647
rfingers 7.12502
rthumb 15.4415 -34.1597
lclavicle 2.17918e-014 7.95139e-015
lhumerus -43.1932 8.55543 69.5665
lradius 36.6069
lwrist -18.6508
lhand -5.00573 13.7014
lfingers 7.12502
lthumb 20.7879 42.6078
rfemur -29.9652 -5.19486 17.0621
rtibia 63.9423
rfoot -13.9445 -14.5731
rtoes -7.87338
lfemur -14.1104 -2.16136 -28.7398
ltibia 15.6926
lfoot -14.683 14.8991
ltoes 6.94497
1256
root -1.85019 15.8038 11.7556 -169.326 370.233 -183.12
lowerback -5.42179 -0.20062 -2.45053
upperback -5.37282 0.211059 -1.9884
thorax -2.49341 0.331265 -0.675623
lowerneck -11.5096 5.14597 15.4439
upperneck 36.274 11.8514 -9.10152
head 16.4158 7.43965 -4.17657
rclavicle -1.17656e-014 -2.0276e-014
rhumerus -40.6914 -10.8409 -71.7807
rradius 26.0714
rwrist 13.043
rhand -10.8226 -4.72764
rfingers 7.12502
rthumb 15.1914 -34.15
lclavicle -1.17656e-014 -2.0276e-014
lhumerus -42.6969 8.26099 69.6413
lradius 37.0552
lwrist -18.353
lhand -5.10509 13.8283
lfingers 7.12502
lthumb 20.6924 42.7452
rfemur -30.9781 -4.95559 17.1321
rtibia 63.3119
rfoot -14.8039 -14.7189
rtoes -8.31162
lfemur -13.962 -2.24086 -28.8883
ltibia 16.317
lfoot -15.294 15.013
ltoes 6.92239
1257
root -1.84613 15.7845 11.6512 -169.36 370.193 -183.187
lowerback -5.363 -0.296758 -2.57784
upperback -5.33378 0.0792075 -1.91146
thorax -2.48511 0.267338 -0.529037
lowerneck -11.4284 5.17537 15.4775
upperneck 36.3231 11.9517 -9.13888
head 16.4465 7.49104 -4.18182
rclavicle 5.66536e-015 -2.54444e-014
rhumerus -41.0997 -11.0031 -71.1616
rradius 26.1982
rwrist 12.5343
rhand -10.9773 -4.75658
rfingers 7.12502
rthumb 15.0423 -34.1901
lclavicle 5.66536e-015 -2.54444e-014
lhumerus -42.198 7.96382 69.7073
lradius 37.5132
lwrist -18.0424
lhand -5.17793 13.9323
lfingers 7.12502
lthumb 20.6225 42.8567
rfemur -31.9417 -4.65065 17.1747
rtibia 62.5315
rfoot -15.5954 -14.8825
rtoes -8.71398
lfemur -13.7898 -2.3099 -29.0399
ltibia 16.901
lfoot -15.8762 15.1225
ltoes 6.90774
1258
root -1.84045 15.7658 11.5479 -169.391 370.139 -183.255
lowerback -5.28471 -0.389211 -2.70924
upperback -5.30004 -0.0483465 -1.83735
thorax -2.4924 0.205918 -0.382966
lowerneck -11.3609 5.20058 15.5046
upperneck 36.3815 12.0418 -9.16273
head 16.4819 7.53888 -4.18157
rclavicle 3.26752e-015 4.96962e-015
rhumerus -41.514 -11.1723 -70.5434
rradius 26.327
rwrist 12.0579
rhand -11.0605 -4.83845
rfingers 7.12502
rthumb 14.9622 -34.278
lclavicle 3.26752e-015 4.96962e-015
lhumerus -41.6928 7.67015 69.7623
lradius 37.984
lwrist -17.7255
lhand -5.23765 14.0102
lfingers 7.12502
lthumb 20.5651 42.9409
rfemur -32.8542 -4.2847 17.1945
rtibia 61.5933
rfoot -16.3137 -15.0806
rtoes -9.05547
lfemur -13.5931 -2.35947 -29.1849
ltibia 17.4209
lfoot -16.4173 15.2063
ltoes 6.89569
1259
root -1.83351 15.7484 11.4448 -169.418 370.069 -183.315
lowerback -5.19302 -0.476548 -2.82993
upperback -5.27137 -0.170014 -1.76495
thorax -2.51173 0.147332 -0.244341
lowerneck -11.2982 5.22201 15.5318
upperneck 36.4385 12.1228 -9.18328
head 16.5158 7.58312 -4.18146
rclavicle 5.3237e-015 -3.57812e-014
rhumerus -41.9344 -11.3362 -69.9362
rradius 26.4534
rwrist 11.6009
rhand -11.1213 -4.92744
rfingers 7.12502
rthumb 14.9037 -34.3713
lclavicle 5.3237e-015 -3.57812e-014
lhumerus -41.1851 7.37759 69.808
lradius 38.4634
lwrist -17.4152
lhand -5.25492 14.103
lfingers 7.12502
lthumb 20.5485 43.0355
rfemur -33.7015 -3.86323 17.1912
rtibia 60.4885
rfoot -16.9552 -15.3158
rtoes -9.3216
lfemur -13.3558 -2.40777 -29.3146
ltibia 17.8523
lfoot -16.903 15.2846
ltoes 6.86224
1260
root -1.82542 15.733 11.3419 -169.43 369.98 -183.365
lowerback -5.09978 -0.561919 -2.93744
upperback -5.2519 -0.28898 -1.69342
thorax -2.54084 0.0902665 -0.113747
lowerneck -11.2335 5.24173 15.5576
upperneck 36.4912 12.1997 -9.19997
head 16.5459 7.62585 -4.18017
rclavicle 3.01283e-015 1.47101e-014
rhumerus -42.3646 -11.4918 -69.3395
rradius 26.5754
rwrist 11.1935
rhand -11.1794 -5.02176
rfingers 7.12502
rthumb 14.8477 -34.4698
lclavicle 3.01283e-015 1.47101e-014
lhumerus -40.6822 7.08562 69.846
lradius 38.9586
lwrist -17.0945
lhand -5.23935 14.2188
lfingers 7.12502
lthumb 20.5634 43.1497
rfemur -34.4868 -3.3928 17.1596
rtibia 59.2131
rfoot -17.5154 -15.5866
rtoes -9.49543
lfemur -13.0765 -2.45188 -29.4278
ltibia 18.1672
lfoot -17.3183 15.3504
ltoes 6.8292
1261
root -1.81662 15.7196 11.2378 -169.437 369.891 -183.404
lowerback -5.0161 -0.637026 -3.02029
upperback -5.23253 -0.394546 -1.62649
thorax -2.56451 0.0390852 -0.00108223
lowerneck -11.1751 5.25817 15.5862
upperneck 36.5386 12.2668 -9.21747
head 16.5733 7.66394 -4.18148
rclavicle -1.21693e-014 -2.98177e-015
rhumerus -42.7982 -11.6542 -68.7504
rradius 26.6832
rwrist 10.8625
rhand -11.2667 -5.08408
rfingers 7.12502
rthumb 14.7636 -34.5383
lclavicle -1.21693e-014 -2.98177e-015
lhumerus -40.1815 6.78986 69.8789
lradius 39.4698
lwrist -16.7586
lhand -5.17355 14.3991
lfingers 7.12502
lthumb 20.6267 43.3231
rfemur -35.193 -2.86598 17.0918
rtibia 57.7647
rfoot -17.9874 -15.8883
rtoes -9.59321
lfemur -12.7255 -2.50137 -29.5262
ltibia 18.3408
lfoot -17.6568 15.4371
ltoes 6.79749
1262
root -1.80718 15.7087 11.1327 -169.434 369.797 -183.441
lowerback -4.94992 -0.706413 -3.08859
upperback -5.21311 -0.491734 -1.56502
thorax -2.57819 -0.00834238 0.0981491
lowerneck -11.1277 5.27416 15.6067
upperneck 36.5815 12.3278 -9.22986
head 16.5988 7.69771 -4.17998
rclavicle -3.68683e-014 5.36719e-015
rhumerus -43.2277 -11.8203 -68.1711
rradius 26.771
rwrist 10.6096
rhand -11.3712 -5.12094
rfingers 7.12502
rthumb 14.6628 -34.5825
lclavicle -3.68683e-014 5.36719e-015
lhumerus -39.6834 6.4957 69.9082
lradius 39.9969
lwrist -16.4026
lhand -5.07583 14.6209
lfingers 7.12502
lthumb 20.7206 43.5347
rfemur -35.8256 -2.29664 16.9728
rtibia 56.1496
rfoot -18.3726 -16.208
rtoes -9.59257
lfemur -12.3017 -2.55079 -29.6212
ltibia 18.3526
lfoot -17.8949 15.5384
ltoes 6.77056
1263
root -1.79716 15.7002 11.0265 -169.418 369.707 -183.484
lowerback -4.90341 -0.769168 -3.15081
upperback -5.19516 -0.578694 -1.51082
thorax -2.58239 -0.0507145 0.186753
lowerneck -11.0872 5.287 15.6284
upperneck 36.6144 12.3788 -9.24789
head 16.6196 7.72537 -4.18303
rclavicle -2.82647e-015 -6.95746e-015
rhumerus -43.6508 -12.016 -67.5827
rradius 26.8256
rwrist 10.4658
rhand -11.4538 -5.103
rfingers 7.12502
rthumb 14.5833 -34.5703
lclavicle -2.82647e-015 -6.95746e-015
lhumerus -39.196 6.19694 69.9389
lradius 40.5408
lwrist -16.0172
lhand -4.9914 14.8528
lfingers 7.12502
lthumb 20.8017 43.7578
rfemur -36.3936 -1.68521 16.7902
rtibia 54.3786
rfoot -18.6676 -16.5329
rtoes -9.48325
lfemur -11.804 -2.59261 -29.7225
ltibia 18.1896
lfoot -18.0181 15.654
ltoes 6.76821
1264
root -1.78637 15.694 10.9194 -169.391 369.615 -183.538
lowerback -4.8788 -0.828166 -3.21088
upperback -5.17953 -0.658805 -1.4657
thorax -2.57676 -0.0895203 0.264891
lowerneck -11.049 5.29701 15.6497
upperneck 36.6379 12.4206 -9.26671
head 16.6343 7.748 -4.18818
rclavicle -1.65022e-014 -2.5842e-015
rhumerus -44.0685 -12.254 -66.9774
rradius 26.8372
rwrist 10.4312
rhand -11.5176 -5.0504
rfingers 7.12502
rthumb 14.5219 -34.5221
lclavicle -1.65022e-014 -2.5842e-015
lhumerus -38.7239 5.89146 69.9692
lradius 41.0965
lwrist -15.6112
lhand -4.95139 15.0623
lfingers 7.12502
lthumb 20.8401 43.963
rfemur -36.9018 -1.03513 16.5384
rtibia 52.4685
rfoot -18.8807 -16.8546
rtoes -9.27242
lfemur -11.2323 -2.61792 -29.8331
ltibia 17.8449
lfoot -18.0154 15.7669
ltoes 6.78215
